<svg width="20" height="20" viewBox="0 0 20 20" fill="none" xmlns="http://www.w3.org/2000/svg">
<path d="M19.2597 3.79875C18.5513 4.125 17.7966 4.34125 17.0097 4.44625C17.8193 3.93875 18.4371 3.14125 18.7275 2.18C17.9728 2.6525 17.1394 2.98625 16.2513 3.1725C15.5347 2.37125 14.5133 1.875 13.399 1.875C11.2371 1.875 9.49659 3.7175 9.49659 5.97625C9.49659 6.30125 9.52278 6.61375 9.58706 6.91125C6.34064 6.745 3.46802 5.11125 1.53826 2.6225C1.20136 3.23625 1.00374 3.93875 1.00374 4.695C1.00374 6.115 1.70017 7.37375 2.73826 8.1025C2.11088 8.09 1.4954 7.89875 0.973975 7.5975C0.973975 7.61 0.973975 7.62625 0.973975 7.6425C0.973975 9.635 2.32755 11.29 4.10255 11.6712C3.78469 11.7625 3.43826 11.8062 3.07874 11.8062C2.82874 11.8062 2.57636 11.7913 2.33945 11.7362C2.8454 13.36 4.28112 14.5538 5.98826 14.5925C4.65969 15.6838 2.97278 16.3412 1.14659 16.3412C0.826352 16.3412 0.51921 16.3263 0.212067 16.285C1.94183 17.4563 3.99183 18.125 6.20255 18.125C13.3883 18.125 17.3169 11.875 17.3169 6.4575C17.3169 6.27625 17.3109 6.10125 17.3026 5.9275C18.0775 5.35 18.7288 4.62875 19.2597 3.79875Z" fill="#080829"/>
</svg>
