<svg width="220" height="77" viewBox="0 0 220 77" fill="none" xmlns="http://www.w3.org/2000/svg">
<rect x="0.5" y="0.5" width="75" height="75" stroke="#3F53D8"/>
<g clip-path="url(#clip0_0_368)">
<path d="M38 67C54.0163 67 67 54.0163 67 38C67 21.9837 54.0163 9 38 9C21.9837 9 9 21.9837 9 38C9 54.0163 21.9837 67 38 67Z" fill="url(#paint0_linear_0_368)"/>
<path d="M47.4533 36.7625L34.4061 28.7889C34.1864 28.6545 33.9348 28.5811 33.6773 28.5762C33.4197 28.5713 33.1655 28.6351 32.9408 28.7611C32.7161 28.8871 32.5291 29.0706 32.3989 29.293C32.2686 29.5152 32.2 29.7682 32.2 30.0258V45.9743C32.2002 46.2319 32.269 46.4847 32.3992 46.7068C32.5295 46.9289 32.7165 47.1124 32.9412 47.2384C33.1658 47.3643 33.4198 47.4281 33.6774 47.4234C33.9348 47.4186 34.1863 47.3454 34.4061 47.2112L47.4533 39.2376C47.6653 39.108 47.8404 38.9262 47.9619 38.7095C48.0834 38.4927 48.1472 38.2485 48.1472 38C48.1472 37.7516 48.0834 37.5073 47.9619 37.2906C47.8404 37.074 47.6653 36.892 47.4533 36.7625Z" fill="white"/>
</g>
<path d="M104.05 45L100.198 31.59H101.656L104.986 43.596H104.68L108.1 31.59H109.63L113.032 43.596H112.708L116.056 31.59H117.514L113.662 45H112.132L108.694 32.94H109.018L105.58 45H104.05ZM121.574 45.216C120.962 45.216 120.416 45.102 119.936 44.874C119.456 44.634 119.078 44.31 118.802 43.902C118.526 43.494 118.388 43.026 118.388 42.498C118.388 41.994 118.496 41.538 118.712 41.13C118.928 40.71 119.264 40.356 119.72 40.068C120.176 39.78 120.758 39.576 121.466 39.456L125.246 38.826V40.05L121.79 40.626C121.094 40.746 120.59 40.968 120.278 41.292C119.978 41.616 119.828 42 119.828 42.444C119.828 42.876 119.996 43.242 120.332 43.542C120.68 43.842 121.124 43.992 121.664 43.992C122.324 43.992 122.9 43.854 123.392 43.578C123.884 43.29 124.268 42.906 124.544 42.426C124.82 41.946 124.958 41.412 124.958 40.824V38.376C124.958 37.8 124.748 37.332 124.328 36.972C123.908 36.612 123.362 36.432 122.69 36.432C122.102 36.432 121.586 36.582 121.142 36.882C120.698 37.17 120.368 37.548 120.152 38.016L118.928 37.35C119.108 36.942 119.39 36.57 119.774 36.234C120.17 35.898 120.62 35.634 121.124 35.442C121.628 35.238 122.15 35.136 122.69 35.136C123.398 35.136 124.022 35.274 124.562 35.55C125.114 35.826 125.54 36.21 125.84 36.702C126.152 37.182 126.308 37.74 126.308 38.376V45H124.958V43.074L125.156 43.272C124.988 43.632 124.724 43.962 124.364 44.262C124.016 44.55 123.602 44.784 123.122 44.964C122.654 45.132 122.138 45.216 121.574 45.216ZM132.999 45.108C132.135 45.108 131.469 44.856 131.001 44.352C130.533 43.848 130.299 43.128 130.299 42.192V36.702H128.517V35.352H128.967C129.375 35.352 129.699 35.22 129.939 34.956C130.179 34.68 130.299 34.338 130.299 33.93V33.12H131.649V35.352H133.773V36.702H131.649V42.192C131.649 42.516 131.697 42.804 131.793 43.056C131.889 43.296 132.051 43.488 132.279 43.632C132.519 43.776 132.837 43.848 133.233 43.848C133.329 43.848 133.443 43.842 133.575 43.83C133.707 43.818 133.821 43.806 133.917 43.794V45C133.773 45.036 133.611 45.06 133.431 45.072C133.251 45.096 133.107 45.108 132.999 45.108ZM140.746 45.216C139.798 45.216 138.964 44.994 138.244 44.55C137.524 44.106 136.96 43.506 136.552 42.75C136.144 41.982 135.94 41.118 135.94 40.158C135.94 39.198 136.144 38.34 136.552 37.584C136.96 36.828 137.524 36.234 138.244 35.802C138.964 35.358 139.798 35.136 140.746 35.136C141.346 35.136 141.91 35.244 142.438 35.46C142.966 35.676 143.434 35.97 143.842 36.342C144.25 36.702 144.556 37.122 144.76 37.602L143.536 38.232C143.296 37.716 142.93 37.296 142.438 36.972C141.946 36.648 141.382 36.486 140.746 36.486C140.11 36.486 139.534 36.648 139.018 36.972C138.514 37.284 138.112 37.722 137.812 38.286C137.524 38.838 137.38 39.468 137.38 40.176C137.38 40.872 137.524 41.502 137.812 42.066C138.112 42.618 138.514 43.056 139.018 43.38C139.534 43.704 140.11 43.866 140.746 43.866C141.382 43.866 141.94 43.704 142.42 43.38C142.912 43.056 143.284 42.624 143.536 42.084L144.76 42.75C144.556 43.218 144.25 43.638 143.842 44.01C143.434 44.382 142.966 44.676 142.438 44.892C141.91 45.108 141.346 45.216 140.746 45.216ZM147.529 45V31.374H148.879V37.224L148.573 37.152C148.813 36.528 149.203 36.036 149.743 35.676C150.295 35.316 150.931 35.136 151.651 35.136C152.335 35.136 152.947 35.292 153.487 35.604C154.039 35.916 154.471 36.348 154.783 36.9C155.107 37.44 155.269 38.052 155.269 38.736V45H153.919V39.258C153.919 38.67 153.811 38.172 153.595 37.764C153.379 37.356 153.079 37.044 152.695 36.828C152.323 36.6 151.897 36.486 151.417 36.486C150.937 36.486 150.505 36.6 150.121 36.828C149.737 37.044 149.431 37.362 149.203 37.782C148.987 38.19 148.879 38.682 148.879 39.258V45H147.529ZM161.904 45V31.59H166.314C167.646 31.59 168.804 31.866 169.788 32.418C170.772 32.958 171.534 33.732 172.074 34.74C172.614 35.736 172.884 36.918 172.884 38.286C172.884 39.642 172.614 40.824 172.074 41.832C171.534 42.84 170.772 43.62 169.788 44.172C168.804 44.724 167.646 45 166.314 45H161.904ZM163.344 43.65H166.314C167.346 43.65 168.24 43.434 168.996 43.002C169.752 42.558 170.334 41.934 170.742 41.13C171.162 40.326 171.372 39.378 171.372 38.286C171.372 37.194 171.162 36.252 170.742 35.46C170.322 34.656 169.734 34.038 168.978 33.606C168.222 33.162 167.334 32.94 166.314 32.94H163.344V43.65ZM179.857 45.216C178.957 45.216 178.141 45 177.409 44.568C176.689 44.124 176.119 43.518 175.699 42.75C175.279 41.982 175.069 41.112 175.069 40.14C175.069 39.168 175.273 38.31 175.681 37.566C176.089 36.81 176.641 36.216 177.337 35.784C178.045 35.352 178.837 35.136 179.713 35.136C180.409 35.136 181.027 35.268 181.567 35.532C182.119 35.784 182.587 36.132 182.971 36.576C183.355 37.008 183.649 37.5 183.853 38.052C184.057 38.592 184.159 39.15 184.159 39.726C184.159 39.846 184.153 39.984 184.141 40.14C184.129 40.284 184.111 40.434 184.087 40.59H175.933V39.33H183.313L182.665 39.87C182.773 39.21 182.695 38.622 182.431 38.106C182.179 37.578 181.813 37.164 181.333 36.864C180.853 36.552 180.313 36.396 179.713 36.396C179.113 36.396 178.555 36.552 178.039 36.864C177.535 37.176 177.139 37.614 176.851 38.178C176.563 38.73 176.449 39.39 176.509 40.158C176.449 40.926 176.569 41.598 176.869 42.174C177.181 42.738 177.601 43.176 178.129 43.488C178.669 43.8 179.245 43.956 179.857 43.956C180.565 43.956 181.159 43.788 181.639 43.452C182.119 43.116 182.509 42.696 182.809 42.192L183.961 42.804C183.769 43.236 183.475 43.638 183.079 44.01C182.683 44.37 182.209 44.664 181.657 44.892C181.117 45.108 180.517 45.216 179.857 45.216ZM186.94 45V35.352H188.29V37.188L188.074 36.918C188.338 36.354 188.728 35.916 189.244 35.604C189.772 35.292 190.348 35.136 190.972 35.136C191.716 35.136 192.388 35.346 192.988 35.766C193.588 36.186 194.014 36.732 194.266 37.404L193.888 37.422C194.128 36.678 194.542 36.114 195.13 35.73C195.73 35.334 196.39 35.136 197.11 35.136C197.758 35.136 198.352 35.292 198.892 35.604C199.444 35.916 199.882 36.348 200.206 36.9C200.542 37.44 200.71 38.052 200.71 38.736V45H199.36V39.258C199.36 38.67 199.252 38.172 199.036 37.764C198.832 37.356 198.55 37.044 198.19 36.828C197.83 36.6 197.416 36.486 196.948 36.486C196.492 36.486 196.078 36.6 195.706 36.828C195.334 37.044 195.04 37.362 194.824 37.782C194.608 38.19 194.5 38.682 194.5 39.258V45H193.15V39.258C193.15 38.67 193.042 38.172 192.826 37.764C192.622 37.356 192.34 37.044 191.98 36.828C191.62 36.6 191.206 36.486 190.738 36.486C190.27 36.486 189.85 36.6 189.478 36.828C189.118 37.044 188.83 37.362 188.614 37.782C188.398 38.19 188.29 38.682 188.29 39.258V45H186.94ZM208.205 45.216C207.293 45.216 206.465 45 205.721 44.568C204.977 44.124 204.383 43.524 203.939 42.768C203.507 42 203.291 41.13 203.291 40.158C203.291 39.198 203.507 38.34 203.939 37.584C204.371 36.828 204.953 36.234 205.685 35.802C206.429 35.358 207.269 35.136 208.205 35.136C209.141 35.136 209.975 35.352 210.707 35.784C211.451 36.216 212.033 36.81 212.453 37.566C212.885 38.322 213.101 39.186 213.101 40.158C213.101 41.142 212.879 42.018 212.435 42.786C211.991 43.542 211.397 44.136 210.653 44.568C209.921 45 209.105 45.216 208.205 45.216ZM208.205 43.866C208.853 43.866 209.435 43.704 209.951 43.38C210.479 43.056 210.893 42.612 211.193 42.048C211.505 41.484 211.661 40.854 211.661 40.158C211.661 39.462 211.505 38.838 211.193 38.286C210.893 37.734 210.479 37.296 209.951 36.972C209.435 36.648 208.853 36.486 208.205 36.486C207.557 36.486 206.969 36.648 206.441 36.972C205.925 37.296 205.511 37.734 205.199 38.286C204.887 38.838 204.731 39.462 204.731 40.158C204.731 40.854 204.887 41.484 205.199 42.048C205.511 42.612 205.925 43.056 206.441 43.38C206.969 43.704 207.557 43.866 208.205 43.866Z" fill="#080829"/>
<defs>
<linearGradient id="paint0_linear_0_368" x1="9" y1="9" x2="67" y2="78.9625" gradientUnits="userSpaceOnUse">
<stop stop-color="#3F53D8"/>
<stop offset="1" stop-color="#8090FE"/>
</linearGradient>
<clipPath id="clip0_0_368">
<rect width="58" height="58" fill="white" transform="translate(9 9)"/>
</clipPath>
</defs>
</svg>
